<mxfile host="app.diagrams.net" modified="2022-08-14T17:27:05.127Z" agent="5.0 (Macintosh; Intel Mac OS X 10_15_7) AppleWebKit/537.36 (KHTML, like Gecko) Chrome/104.0.5112.81 Safari/537.36" etag="9TBVdK2xYbHYgNrVymnZ" version="20.2.3" type="github">
  <diagram id="Gj9ap1B54_YSofqALJSN" name="Page-1">
    <mxGraphModel dx="946" dy="593" grid="1" gridSize="10" guides="1" tooltips="1" connect="1" arrows="1" fold="1" page="1" pageScale="1" pageWidth="1169" pageHeight="827" math="0" shadow="0">
      <root>
        <mxCell id="0" />
        <mxCell id="1" parent="0" />
        <mxCell id="Sw-rf_Q4OlVgCwIyW0Pj-6" style="edgeStyle=orthogonalEdgeStyle;rounded=0;orthogonalLoop=1;jettySize=auto;html=1;entryX=0;entryY=0.5;entryDx=0;entryDy=0;" parent="1" source="Sw-rf_Q4OlVgCwIyW0Pj-4" target="Sw-rf_Q4OlVgCwIyW0Pj-5" edge="1">
          <mxGeometry relative="1" as="geometry">
            <Array as="points">
              <mxPoint x="175" y="195" />
            </Array>
          </mxGeometry>
        </mxCell>
        <mxCell id="Sw-rf_Q4OlVgCwIyW0Pj-4" value="Self ordering&lt;br&gt;" style="sketch=0;outlineConnect=0;fontColor=#232F3E;gradientColor=none;strokeColor=#232F3E;fillColor=#ffffff;dashed=0;verticalLabelPosition=bottom;verticalAlign=top;align=center;html=1;fontSize=12;fontStyle=0;aspect=fixed;shape=mxgraph.aws4.resourceIcon;resIcon=mxgraph.aws4.mobile_client;" parent="1" vertex="1">
          <mxGeometry x="140" y="349" width="70" height="70" as="geometry" />
        </mxCell>
        <mxCell id="Sw-rf_Q4OlVgCwIyW0Pj-8" style="edgeStyle=orthogonalEdgeStyle;rounded=0;orthogonalLoop=1;jettySize=auto;html=1;exitX=0.5;exitY=1;exitDx=0;exitDy=0;" parent="1" source="Sw-rf_Q4OlVgCwIyW0Pj-5" target="Sw-rf_Q4OlVgCwIyW0Pj-7" edge="1">
          <mxGeometry relative="1" as="geometry" />
        </mxCell>
        <mxCell id="Sw-rf_Q4OlVgCwIyW0Pj-5" value="Internet&lt;br&gt;Huawei cloud native" style="aspect=fixed;perimeter=ellipsePerimeter;html=1;align=center;shadow=0;dashed=0;spacingTop=3;image;image=img/lib/active_directory/internet_cloud.svg;" parent="1" vertex="1">
          <mxGeometry x="370" y="150" width="142.86" height="90" as="geometry" />
        </mxCell>
        <mxCell id="Sw-rf_Q4OlVgCwIyW0Pj-17" style="edgeStyle=orthogonalEdgeStyle;rounded=0;orthogonalLoop=1;jettySize=auto;html=1;exitX=1;exitY=0.5;exitDx=0;exitDy=0;exitPerimeter=0;entryX=0;entryY=0.5;entryDx=0;entryDy=0;fontColor=#000912;" parent="1" source="Sw-rf_Q4OlVgCwIyW0Pj-7" target="Sw-rf_Q4OlVgCwIyW0Pj-16" edge="1">
          <mxGeometry relative="1" as="geometry" />
        </mxCell>
        <mxCell id="Sw-rf_Q4OlVgCwIyW0Pj-23" value="Send print command" style="edgeLabel;html=1;align=center;verticalAlign=middle;resizable=0;points=[];fontColor=#000912;" parent="Sw-rf_Q4OlVgCwIyW0Pj-17" vertex="1" connectable="0">
          <mxGeometry x="-0.2421" y="-1" relative="1" as="geometry">
            <mxPoint as="offset" />
          </mxGeometry>
        </mxCell>
        <mxCell id="Sw-rf_Q4OlVgCwIyW0Pj-7" value="Desktop POS" style="fontColor=#000912;verticalAlign=top;verticalLabelPosition=bottom;labelPosition=center;align=center;html=1;outlineConnect=0;fillColor=#CCCCCC;strokeColor=#6881B3;gradientColor=none;gradientDirection=north;strokeWidth=2;shape=mxgraph.networks.virtual_pc;" parent="1" vertex="1">
          <mxGeometry x="383.93" y="341.5" width="115" height="85" as="geometry" />
        </mxCell>
        <mxCell id="Sw-rf_Q4OlVgCwIyW0Pj-9" value="Kitchen 1&lt;br&gt;eg : Food station" style="verticalLabelPosition=bottom;sketch=0;aspect=fixed;html=1;verticalAlign=top;strokeColor=none;align=center;outlineConnect=0;shape=mxgraph.citrix.printer;fontColor=#000912;" parent="1" vertex="1">
          <mxGeometry x="860" y="180" width="70" height="70" as="geometry" />
        </mxCell>
        <mxCell id="Sw-rf_Q4OlVgCwIyW0Pj-10" value="Kitchen 2&lt;br&gt;eg: Beverage station" style="verticalLabelPosition=bottom;sketch=0;aspect=fixed;html=1;verticalAlign=top;strokeColor=none;align=center;outlineConnect=0;shape=mxgraph.citrix.printer;fontColor=#000912;" parent="1" vertex="1">
          <mxGeometry x="860" y="349" width="70" height="70" as="geometry" />
        </mxCell>
        <mxCell id="Sw-rf_Q4OlVgCwIyW0Pj-28" value="" style="edgeStyle=orthogonalEdgeStyle;rounded=0;orthogonalLoop=1;jettySize=auto;html=1;fontColor=#000912;strokeColor=#030405;fontSize=12;" parent="1" source="Sw-rf_Q4OlVgCwIyW0Pj-15" edge="1">
          <mxGeometry relative="1" as="geometry">
            <mxPoint x="175" y="435" as="targetPoint" />
          </mxGeometry>
        </mxCell>
        <mxCell id="Sw-rf_Q4OlVgCwIyW0Pj-32" value="Make order by scanning table QR" style="edgeLabel;html=1;align=center;verticalAlign=middle;resizable=0;points=[];fontColor=#000912;fontSize=12;" parent="Sw-rf_Q4OlVgCwIyW0Pj-28" vertex="1" connectable="0">
          <mxGeometry x="-0.3534" y="-3" relative="1" as="geometry">
            <mxPoint as="offset" />
          </mxGeometry>
        </mxCell>
        <mxCell id="Sw-rf_Q4OlVgCwIyW0Pj-15" value="Customers" style="verticalLabelPosition=bottom;sketch=0;html=1;verticalAlign=top;pointerEvents=1;align=center;shape=mxgraph.cisco_safe.people_places_things_icons.icon1;fillColor=#647687;strokeColor=#314354;fontColor=#000000;" parent="1" vertex="1">
          <mxGeometry x="130" y="590" width="90" height="90" as="geometry" />
        </mxCell>
        <mxCell id="Sw-rf_Q4OlVgCwIyW0Pj-20" style="edgeStyle=orthogonalEdgeStyle;rounded=0;orthogonalLoop=1;jettySize=auto;html=1;exitX=1;exitY=0.5;exitDx=0;exitDy=0;fontColor=#000912;" parent="1" source="Sw-rf_Q4OlVgCwIyW0Pj-16" target="Sw-rf_Q4OlVgCwIyW0Pj-10" edge="1">
          <mxGeometry relative="1" as="geometry" />
        </mxCell>
        <mxCell id="Sw-rf_Q4OlVgCwIyW0Pj-21" style="edgeStyle=orthogonalEdgeStyle;rounded=0;orthogonalLoop=1;jettySize=auto;html=1;exitX=1;exitY=0.5;exitDx=0;exitDy=0;fontColor=#000912;" parent="1" source="Sw-rf_Q4OlVgCwIyW0Pj-16" target="Sw-rf_Q4OlVgCwIyW0Pj-9" edge="1">
          <mxGeometry relative="1" as="geometry">
            <Array as="points">
              <mxPoint x="760" y="385" />
              <mxPoint x="760" y="220" />
            </Array>
          </mxGeometry>
        </mxCell>
        <mxCell id="FFr8ALm9LB4i0P-OEjFf-3" style="edgeStyle=orthogonalEdgeStyle;rounded=0;orthogonalLoop=1;jettySize=auto;html=1;exitX=1;exitY=0.5;exitDx=0;exitDy=0;" edge="1" parent="1" source="Sw-rf_Q4OlVgCwIyW0Pj-16" target="FFr8ALm9LB4i0P-OEjFf-2">
          <mxGeometry relative="1" as="geometry">
            <Array as="points">
              <mxPoint x="760" y="385" />
              <mxPoint x="760" y="560" />
            </Array>
          </mxGeometry>
        </mxCell>
        <mxCell id="Sw-rf_Q4OlVgCwIyW0Pj-16" value="Router" style="image;html=1;image=img/lib/clip_art/networking/Wireless_Router_N_128x128.png;fontColor=#000912;" parent="1" vertex="1">
          <mxGeometry x="620" y="340" width="90" height="89" as="geometry" />
        </mxCell>
        <mxCell id="Sw-rf_Q4OlVgCwIyW0Pj-24" value="" style="sketch=0;pointerEvents=1;shadow=0;dashed=0;html=1;strokeColor=none;fillColor=#505050;labelPosition=center;verticalLabelPosition=bottom;verticalAlign=top;outlineConnect=0;align=center;shape=mxgraph.office.communications.exchange_active_sync;fillColor=#2072B8;fontColor=#000912;" parent="1" vertex="1">
          <mxGeometry x="416.93" y="349" width="49" height="49" as="geometry" />
        </mxCell>
        <mxCell id="Sw-rf_Q4OlVgCwIyW0Pj-31" value="" style="edgeStyle=orthogonalEdgeStyle;rounded=0;orthogonalLoop=1;jettySize=auto;html=1;fontColor=#000912;strokeColor=#030405;entryX=0.5;entryY=1;entryDx=0;entryDy=0;entryPerimeter=0;" parent="1" source="Sw-rf_Q4OlVgCwIyW0Pj-29" target="Sw-rf_Q4OlVgCwIyW0Pj-7" edge="1">
          <mxGeometry relative="1" as="geometry">
            <mxPoint x="441.43000000000006" y="465" as="targetPoint" />
          </mxGeometry>
        </mxCell>
        <mxCell id="Sw-rf_Q4OlVgCwIyW0Pj-33" value="Make order at counter" style="edgeLabel;html=1;align=center;verticalAlign=middle;resizable=0;points=[];fontColor=#000912;fontSize=12;" parent="Sw-rf_Q4OlVgCwIyW0Pj-31" vertex="1" connectable="0">
          <mxGeometry x="-0.2783" y="-3" relative="1" as="geometry">
            <mxPoint as="offset" />
          </mxGeometry>
        </mxCell>
        <mxCell id="Sw-rf_Q4OlVgCwIyW0Pj-29" value="Customers" style="verticalLabelPosition=bottom;sketch=0;html=1;verticalAlign=top;pointerEvents=1;align=center;shape=mxgraph.cisco_safe.people_places_things_icons.icon1;fillColor=#647687;strokeColor=#314354;fontColor=#0A0A0A;" parent="1" vertex="1">
          <mxGeometry x="396.43" y="590" width="90" height="90" as="geometry" />
        </mxCell>
        <mxCell id="FFr8ALm9LB4i0P-OEjFf-2" value="Kitchen monitor" style="fontColor=#000912;verticalAlign=top;verticalLabelPosition=bottom;labelPosition=center;align=center;html=1;outlineConnect=0;fillColor=#CCCCCC;strokeColor=#6881B3;gradientColor=none;gradientDirection=north;strokeWidth=2;shape=mxgraph.networks.virtual_pc;" vertex="1" parent="1">
          <mxGeometry x="860" y="520" width="90" height="70" as="geometry" />
        </mxCell>
      </root>
    </mxGraphModel>
  </diagram>
</mxfile>
